<svg width="25" height="25" viewBox="0 0 25 25" fill="none" xmlns="http://www.w3.org/2000/svg">
<path d="M12.5 0C7.32266 0 3.125 4.19766 3.125 9.375C3.125 11.4137 3.79336 13.2844 4.9043 14.8164C4.92422 14.8531 4.92734 14.8941 4.95 14.9293L11.2 24.3043C11.4898 24.7391 11.9781 25 12.5 25C13.0219 25 13.5102 24.7391 13.8 24.3043L20.05 14.9293C20.073 14.8941 20.0758 14.8531 20.0957 14.8164C21.2066 13.2844 21.875 11.4137 21.875 9.375C21.875 4.19766 17.6773 0 12.5 0ZM12.5 12.5C10.7742 12.5 9.375 11.1008 9.375 9.375C9.375 7.64922 10.7742 6.25 12.5 6.25C14.2258 6.25 15.625 7.64922 15.625 9.375C15.625 11.1008 14.2258 12.5 12.5 12.5Z" fill="#FF0040"/>
</svg>
