<svg width="50" height="51" viewBox="0 0 50 51" fill="none" xmlns="http://www.w3.org/2000/svg">
<circle cx="25" cy="25.0098" r="25" fill="white"/>
<path d="M41 15.1802C39.8232 15.7209 38.559 16.0863 37.2301 16.2515C38.5858 15.4097 39.6259 14.0738 40.1163 12.4837C38.8479 13.2642 37.4428 13.8312 35.9476 14.1352C34.7496 12.814 33.0444 11.9868 31.1559 11.9868C27.5311 11.9868 24.5913 15.0355 24.5913 18.7974C24.5915 19.3188 24.6482 19.8385 24.7604 20.3467C19.3021 20.0616 14.4667 17.3505 11.2281 13.232C10.6645 14.2404 10.3403 15.4097 10.3403 16.6548C10.3403 19.0166 11.5002 21.1022 13.2604 22.3226C12.2179 22.2882 11.1984 21.996 10.2867 21.4705V21.5582C10.2867 24.8568 12.5487 27.6088 15.5533 28.2344C14.9895 28.3921 14.4081 28.4717 13.8241 28.4711C13.4094 28.4715 12.9956 28.4313 12.5882 28.3513C13.4239 31.055 15.8479 33.0252 18.7215 33.0778C16.4736 34.9046 13.6423 35.9935 10.5672 35.9935C10.0373 35.9935 9.5144 35.9613 9 35.8984C11.9061 37.8321 15.3561 38.9574 19.0626 38.9574C31.1404 38.9574 37.7431 28.5836 37.7431 19.5866C37.7431 19.2944 37.736 18.9991 37.7233 18.7068C39.0058 17.7451 40.1192 16.5482 40.9971 15.1846L41 15.1802Z" fill="#3594EC"/>
</svg>
