<svg width="50" height="51" viewBox="0 0 50 51" fill="none" xmlns="http://www.w3.org/2000/svg">
<circle cx="25" cy="25.0098" r="25" fill="white"/>
<path d="M19.3347 24.9727C19.3347 21.8466 21.8711 19.3117 25.0007 19.3117C28.1303 19.3117 30.668 21.8466 30.668 24.9727C30.668 28.0988 28.1303 30.6336 25.0007 30.6336C21.8711 30.6336 19.3347 28.0988 19.3347 24.9727ZM16.271 24.9727C16.271 29.7887 20.1792 33.6925 25.0007 33.6925C29.8221 33.6925 33.7304 29.7887 33.7304 24.9727C33.7304 20.1567 29.8221 16.2529 25.0007 16.2529C20.1792 16.2529 16.271 20.1567 16.271 24.9727ZM32.0358 15.9072C32.0358 17.032 32.949 17.9455 34.0764 17.9455C35.2025 17.9455 36.117 17.032 36.117 15.9072C36.117 14.7824 35.2038 13.8703 34.0764 13.8703C32.949 13.8703 32.0358 14.7824 32.0358 15.9072ZM18.1317 38.7952C16.4743 38.7197 15.5734 38.444 14.9747 38.2108C14.1809 37.9022 13.6152 37.5346 13.0192 36.9406C12.4246 36.3467 12.0552 35.7816 11.7476 34.9887C11.5141 34.3907 11.2381 33.4909 11.1626 31.8352C11.0802 30.0452 11.0637 29.5075 11.0637 24.9727C11.0637 20.4379 11.0815 19.9016 11.1626 18.1101C11.2381 16.4545 11.5155 15.5561 11.7476 14.9566C12.0565 14.1638 12.4246 13.5987 13.0192 13.0034C13.6138 12.4094 14.1796 12.0404 14.9747 11.7332C15.5734 11.5 16.4743 11.2243 18.1317 11.1488C19.9238 11.0665 20.4621 11.0501 25.0007 11.0501C29.5406 11.0501 30.0775 11.0679 31.871 11.1488C33.5285 11.2243 34.428 11.5014 35.0281 11.7332C35.8218 12.0404 36.3876 12.4094 36.9836 13.0034C37.5782 13.5973 37.9462 14.1638 38.2552 14.9566C38.4886 15.5547 38.7647 16.4545 38.8402 18.1101C38.9226 19.9016 38.9391 20.4379 38.9391 24.9727C38.9391 29.5061 38.9226 30.0438 38.8402 31.8352C38.7647 33.4909 38.4873 34.3907 38.2552 34.9887C37.9462 35.7816 37.5782 36.3467 36.9836 36.9406C36.389 37.5346 35.8218 37.9022 35.0281 38.2108C34.4293 38.444 33.5285 38.7197 31.871 38.7952C30.0789 38.8775 29.5406 38.8939 25.0007 38.8939C20.4621 38.8939 19.9238 38.8775 18.1317 38.7952ZM17.9917 8.09409C16.1818 8.17639 14.9458 8.46307 13.8651 8.88281C12.7473 9.31626 11.7997 9.89785 10.8536 10.8416C9.9088 11.7853 9.32655 12.7318 8.8926 13.8497C8.47239 14.9292 8.18539 16.1637 8.10299 17.9716C8.01923 19.7822 8 20.3611 8 24.9727C8 29.5843 8.01923 30.1631 8.10299 31.9738C8.18539 33.7817 8.47239 35.0162 8.8926 36.0957C9.32655 37.2122 9.90743 38.1601 10.8536 39.1038C11.7984 40.0475 12.7459 40.6277 13.8651 41.0626C14.9472 41.4823 16.1818 41.769 17.9917 41.8513C19.8057 41.9336 20.3839 41.9542 25.0007 41.9542C29.6189 41.9542 30.197 41.935 32.0097 41.8513C33.8196 41.769 35.0555 41.4823 36.1363 41.0626C37.2541 40.6277 38.2016 40.0475 39.1478 39.1038C40.0926 38.1601 40.6735 37.2122 41.1088 36.0957C41.529 35.0162 41.8174 33.7817 41.8984 31.9738C41.9808 30.1618 42 29.5843 42 24.9727C42 20.3611 41.9808 19.7822 41.8984 17.9716C41.816 16.1637 41.529 14.9292 41.1088 13.8497C40.6735 12.7331 40.0926 11.7867 39.1478 10.8416C38.203 9.89785 37.2541 9.31626 36.1376 8.88281C35.0555 8.46307 33.8196 8.17502 32.0111 8.09409C30.1984 8.01179 29.6189 7.99121 25.0021 7.99121C20.3839 7.99121 19.8057 8.01041 17.9917 8.09409Z" fill="#3594EC"/>
</svg>
