<svg width="50" height="50" viewBox="0 0 50 50" fill="none" xmlns="http://www.w3.org/2000/svg">
<circle cx="25" cy="25" r="25" fill="#3594EC"/>
<path d="M24.9999 0C11.1928 0 0 11.1806 0 24.9728C0 38.7649 11.1928 49.9455 24.9999 49.9455C38.8071 49.9455 50 38.7649 50 24.9728C49.9999 11.1806 38.8069 0 24.9999 0ZM18.3299 37.0459H12.8409V19.3319H18.3299V37.0459ZM15.5593 17.0121C13.7666 17.0121 12.3134 15.5486 12.3134 13.7435C12.3134 11.9383 13.7668 10.4749 15.5593 10.4749C17.3517 10.4749 18.805 11.9383 18.805 13.7435C18.8051 15.5487 17.3518 17.0121 15.5593 17.0121ZM38.8999 37.0459H33.4375V27.7475C33.4375 25.1972 32.4678 23.7736 30.449 23.7736C28.2519 23.7736 27.1041 25.2563 27.1041 27.7475V37.0459H21.8395V19.3319H27.1041V21.7176C27.1041 21.7176 28.6877 18.7915 32.4479 18.7915C36.2082 18.7915 38.9 21.085 38.9 25.8296L38.8999 37.0459Z" fill="url(#paint0_linear_231_4)"/>
<defs>
<linearGradient id="paint0_linear_231_4" x1="7.32231" y1="7.31434" x2="42.6391" y2="42.6696" gradientUnits="userSpaceOnUse">
<stop stop-color="#FEFDFD"/>
<stop offset="0.9999" stop-color="white"/>
<stop offset="1" stop-color="#0575B3"/>
</linearGradient>
</defs>
</svg>
