<svg width="250" height="250" viewBox="0 0 250 250" fill="none" xmlns="http://www.w3.org/2000/svg">
<g clip-path="url(#clip0_11_44)">
<path d="M250 195.778V206.126C250 208.609 248.344 210.265 245.861 210.265H184.189C183.775 210.265 182.947 210.265 182.533 209.851C181.291 209.023 180.05 207.781 180.05 206.126V195.778C180.05 186.258 184.189 177.98 190.397 172.185C189.983 170.116 189.57 168.046 189.57 165.563C189.57 151.49 200.745 140.315 214.818 140.315C216.06 140.315 216.887 140.315 217.715 140.315C230.132 141.97 240.066 152.318 240.066 165.149C240.066 179.222 228.891 190.397 214.818 190.397C206.54 190.397 198.676 186.258 194.123 179.636C190.397 183.775 187.914 189.156 187.914 195.364V201.987H241.308V195.364C241.308 193.295 240.894 191.225 240.48 189.156C240.066 187.914 240.48 186.258 241.722 185.43C243.791 183.361 247.93 184.189 248.758 187.5C249.586 190.397 250 192.881 250 195.778ZM232.202 165.563C232.202 156.043 224.752 148.593 215.232 148.593C205.712 148.593 198.262 156.043 198.262 165.563C198.262 175.083 205.712 182.533 215.232 182.533C224.338 182.533 232.202 175.083 232.202 165.563Z" fill="black"/>
<path d="M215.232 148.593C224.752 148.593 232.202 156.043 232.202 165.563C232.202 175.083 224.752 182.533 215.232 182.533C205.712 182.533 198.262 174.669 198.262 165.563C198.262 156.043 205.712 148.593 215.232 148.593Z" fill="white"/>
<path d="M224.338 128.725C224.338 129.139 224.338 129.139 224.338 129.139C224.338 131.209 222.682 133.278 220.199 133.278C219.785 133.278 219.785 133.278 219.371 133.278C217.715 132.864 216.474 131.623 216.06 129.967C213.162 112.169 205.298 96.4405 194.123 83.6093C192.881 82.3676 192.881 80.2981 193.709 78.6424L194.123 78.2285C195.778 76.5729 198.262 76.5729 199.917 78.2285C212.334 91.8875 221.027 109.272 224.338 128.725Z" fill="black"/>
<path d="M189.156 67.4669C190.811 69.1226 191.225 72.0199 189.156 73.6755C188.328 74.5033 187.5 74.9173 186.258 74.9173C185.43 74.9173 184.189 74.5033 183.361 74.0894C180.05 71.606 176.738 68.7086 173.013 66.6391C171.772 65.8113 170.944 64.5696 170.944 63.3279C170.944 60.0166 174.255 57.9471 177.152 60.0166C181.705 61.6722 185.844 64.5696 189.156 67.4669Z" fill="black"/>
<path d="M181.291 220.613C182.947 222.268 182.947 225.579 180.878 226.821C165.149 237.169 146.523 243.377 126.242 243.377C105.546 243.377 86.0927 237.169 70.3643 225.993C68.2947 224.752 68.2947 221.44 69.9503 219.785C70.3643 219.785 70.3643 219.371 70.7782 219.371C72.0199 218.543 74.0894 218.543 75.3311 219.371C89.8179 229.305 107.616 235.099 126.656 235.099C145.281 235.099 162.252 229.719 176.325 220.199C177.152 219.785 177.98 219.371 178.808 219.371C179.636 219.371 180.464 219.785 181.291 220.613Z" fill="black"/>
<path d="M163.493 62.9139V72.8477C163.493 74.9173 161.838 76.9868 159.354 76.9868H97.6822C95.6126 76.9868 93.5431 75.3312 93.5431 72.8477V62.0861C93.5431 61.6722 93.5431 60.8444 93.5431 60.0166C93.957 51.3245 98.0961 43.8742 104.305 38.4934C103.477 36.4239 103.477 33.9404 103.477 31.8709C103.477 17.7981 114.652 6.62256 128.725 6.62256C142.798 6.62256 153.974 17.7981 153.974 31.8709C153.974 45.9438 142.798 57.1192 128.725 57.1192C120.033 57.1192 112.583 52.9802 108.03 46.3577C104.305 50.4967 101.821 55.8775 101.821 62.0861V68.7087H155.215V62.0861C155.215 59.6027 154.801 57.1192 153.974 54.6358C153.56 53.3941 153.974 51.7384 154.801 50.4967L155.215 50.0828C157.285 48.0133 160.596 48.8411 161.424 51.7385C162.666 55.0497 163.08 58.361 163.08 62.0861V62.9139H163.493ZM145.695 31.8709C145.695 22.351 138.245 14.9007 128.725 14.9007C119.205 14.9007 111.755 22.351 111.755 31.8709C111.755 41.3908 119.205 48.8411 128.725 48.8411C137.831 48.8411 145.695 41.3908 145.695 31.8709Z" fill="black"/>
<path d="M128.725 14.9008C138.245 14.9008 145.695 22.3511 145.695 31.871C145.695 41.3908 138.245 48.8412 128.725 48.8412C119.205 48.8412 111.755 41.3908 111.755 31.871C111.755 22.3511 119.205 14.9008 128.725 14.9008Z" fill="white"/>
<path d="M86.9206 59.6027C86.9206 61.2584 86.0927 62.5001 84.851 63.3279C59.1888 76.5729 40.5629 101.821 36.4239 131.623C36.01 133.692 34.3543 135.348 32.2848 135.348C29.8013 135.348 27.7318 133.278 28.1457 130.795C32.6987 98.51 52.9802 70.7782 80.7119 56.2915C83.6093 54.6359 86.9206 56.2915 86.9206 59.6027Z" fill="black"/>
<path d="M69.9503 195.778V206.126C69.9503 208.609 67.8808 210.265 65.8113 210.265H4.13907C2.06954 210.265 0 208.609 0 206.126V195.778C0 186.258 4.13907 177.98 10.3477 172.186C9.93377 170.116 9.51987 168.046 9.51987 165.563C9.51987 152.318 19.4536 141.556 32.2848 140.315C33.1126 140.315 33.9404 140.315 34.7682 140.315C48.8411 140.315 60.0166 151.49 60.0166 165.563C60.0166 179.636 48.8411 190.811 34.7682 190.811C26.0762 190.811 18.6258 186.672 14.0728 180.05C10.3477 184.189 7.86424 189.57 7.86424 195.778V202.401H61.2583V195.778C61.2583 193.295 60.8444 190.811 60.0166 188.328C59.6026 187.086 60.0166 185.431 60.8444 184.603L61.6722 183.775C63.7417 181.705 67.053 182.533 67.8808 185.431C69.5364 188.742 69.9503 192.053 69.9503 195.778ZM52.1523 165.563C52.1523 156.043 44.2881 148.593 35.1821 148.593C25.6623 148.593 18.2119 156.043 18.2119 165.563C18.2119 175.083 25.6623 182.533 35.1821 182.533C44.2881 182.533 52.1523 175.083 52.1523 165.563Z" fill="black"/>
<path d="M35.1821 148.593C44.702 148.593 52.1523 156.043 52.1523 165.563C52.1523 175.083 44.2881 182.533 35.1821 182.533C25.6622 182.533 18.2119 174.669 18.2119 165.563C18.2119 156.043 25.6622 148.593 35.1821 148.593Z" fill="white"/>
</g>
<defs>
<clipPath id="clip0_11_44">
<rect width="250" height="250" fill="white"/>
</clipPath>
</defs>
</svg>
