<svg width="250" height="250" viewBox="0 0 250 250" fill="none" xmlns="http://www.w3.org/2000/svg">
<path d="M177.75 172.5H72.25C69.75 172.5 67.5 174.75 67.5 177.25V177.5C67.5 185.75 74.25 192.5 82.5 192.5H167.5C175.75 192.5 182.5 185.75 182.5 177.5V177.25C182.5 174.75 180.25 172.5 177.75 172.5Z" fill="black"/>
<path d="M190 70C181.75 70 175 76.75 175 85C175 89.5 177 93.75 180.25 96.5C176 106.25 166.25 113 154.75 112.5C141.5 111.75 130.75 101 130 87.75C130 85.5 130 83.5 130.5 81.5C136 79.25 140 74 140 67.5C140 59.25 133.25 52.5 125 52.5C116.75 52.5 110 59.25 110 67.5C110 73.75 114 79.25 119.5 81.5C120 83.5 120 85.5 120 87.75C119.25 101 108.5 111.75 95.25 112.5C83.75 113.25 73.75 106.25 69.75 96.5C73 93.75 75 89.5 75 85C75 76.75 68.25 70 60 70C51.75 70 45 76.75 45 85C45 93.25 51.75 100 60 100L67 153.5C67.25 155.75 69.25 157.5 71.75 157.5H178.25C180.5 157.5 182.5 155.75 183 153.5L190 100C198.25 100 205 93.25 205 85C205 76.75 198.25 70 190 70Z" fill="black"/>
</svg>
