<svg width="250" height="250" viewBox="0 0 250 250" fill="none" xmlns="http://www.w3.org/2000/svg">
<g clip-path="url(#clip0_39_171)">
<path d="M125.001 119.747C122.754 119.747 120.933 121.569 120.933 123.816V164.342C120.933 166.589 122.755 168.41 125.001 168.41C127.248 168.41 129.07 166.588 129.07 164.342V123.816C129.07 121.569 127.248 119.747 125.001 119.747Z" fill="black"/>
<path d="M100.988 15.9438H19.9024C8.92823 15.9438 -1.14441e-05 24.8692 -1.14441e-05 35.8409V64.7643C-1.14441e-05 67.0113 1.82177 68.8326 4.06836 68.8326C6.31543 68.8326 8.13672 67.0108 8.13672 64.7643V35.8409C8.13672 29.356 13.4151 24.0806 19.9024 24.0806H100.988C103.236 24.0806 105.057 22.2588 105.057 20.0122C105.057 17.7656 103.236 15.9438 100.988 15.9438Z" fill="black"/>
<path d="M230.103 15.9438H149.316C147.069 15.9438 145.247 17.7656 145.247 20.0122C145.247 22.2588 147.069 24.0806 149.316 24.0806H230.103C236.588 24.0806 241.864 29.3565 241.864 35.8409V174.715H216.37C214.123 174.715 212.302 176.536 212.302 178.783C212.302 181.03 214.123 182.851 216.37 182.851H241.864V190.309C241.864 196.794 236.588 202.07 230.103 202.07H19.9024C13.4146 202.07 8.13672 196.794 8.13672 190.309V182.851H202.808C205.056 182.851 206.877 181.03 206.877 178.783C206.877 176.536 205.055 174.715 202.808 174.715H187.278C187.369 173.985 187.418 173.249 187.418 172.512C187.418 162.724 179.456 154.762 169.669 154.762C167.483 154.762 165.361 155.152 163.373 155.905C159.37 148.483 151.5 143.615 142.828 143.615C142.794 143.615 142.761 143.617 142.727 143.617V123.815C142.727 121.568 140.905 119.747 138.658 119.747C136.412 119.747 134.59 121.569 134.59 123.815V157.777C134.59 160.024 136.412 161.845 138.658 161.845C140.905 161.845 142.727 160.023 142.727 157.777V151.754C142.761 151.754 142.794 151.751 142.828 151.751C149.579 151.751 155.583 156.28 157.429 162.764C157.798 164.06 158.784 165.09 160.064 165.513C161.342 165.935 162.749 165.699 163.818 164.879C165.507 163.583 167.531 162.898 169.669 162.898C174.97 162.898 179.282 167.21 179.282 172.511C179.282 173.264 179.196 173.999 179.029 174.714H70.9723C70.8053 174.001 70.7189 173.265 70.7189 172.511C70.7189 167.21 75.0333 162.898 80.3366 162.898C82.4718 162.898 84.4928 163.583 86.1818 164.879C87.2511 165.699 88.6554 165.936 89.9342 165.513C91.2135 165.09 92.1999 164.062 92.5695 162.767C94.4196 156.281 100.426 151.751 107.176 151.751C107.209 151.751 107.241 151.753 107.274 151.754V157.776C107.274 160.023 109.095 161.845 111.342 161.845C113.589 161.845 115.41 160.023 115.41 157.776V123.815C115.41 121.568 113.589 119.746 111.342 119.746C109.095 119.746 107.274 121.568 107.274 123.815V143.617C107.241 143.617 107.209 143.614 107.176 143.614C98.5065 143.614 90.6349 148.483 86.6286 155.905C84.6403 155.151 82.5202 154.762 80.3356 154.762C70.546 154.762 62.5812 162.724 62.5812 172.511C62.5812 173.248 62.63 173.984 62.7213 174.714H8.13672V78.3258C8.13672 76.0787 6.31494 74.2574 4.06836 74.2574C1.82128 74.2574 -1.14441e-05 76.0792 -1.14441e-05 78.3258V190.31C-1.14441e-05 201.282 8.92823 210.207 19.9024 210.207H89.6208L79.6134 233.619H60.0655C57.8185 233.619 55.9972 235.441 55.9972 237.687C55.9972 239.934 57.819 241.756 60.0655 241.756H189.935C192.182 241.756 194.003 239.934 194.003 237.687C194.003 235.441 192.182 233.619 189.935 233.619H170.387L160.38 210.207H230.103C241.074 210.207 250 201.281 250 190.31V35.8409C250 24.8692 241.074 15.9438 230.103 15.9438ZM161.538 233.619H88.4626L95.4147 217.355H154.586L161.538 233.619Z" fill="black"/>
<path d="M128.381 189.238C126.399 186.226 121.615 187.283 120.997 190.8C120.697 192.506 121.552 194.271 123.084 195.083C124.616 195.895 126.547 195.642 127.805 194.443C129.226 193.089 129.456 190.871 128.381 189.238Z" fill="black"/>
<path d="M163.529 79.1502C160.356 73.927 156.487 70.5339 153.97 68.6916C154.521 65.4387 154.81 62.112 154.81 58.7361C154.81 56.489 152.989 54.6677 150.742 54.6677C148.495 54.6677 146.674 56.4895 146.674 58.7361C146.674 75.4446 138.619 90.7903 125 100.285C111.382 90.7908 103.327 75.4451 103.327 58.7361C103.327 51.6228 104.792 44.759 107.518 38.487C112.66 41.9313 118.706 43.7941 125.002 43.7941C131.288 43.7941 137.327 41.9362 142.465 38.5002C143.528 40.9455 144.413 43.4826 145.086 46.1052C145.644 48.2815 147.861 49.5915 150.038 49.0344C152.215 48.4758 153.526 46.2585 152.968 44.0822C149.207 29.4318 140.041 16.9245 127.157 8.86389C125.837 8.03821 124.162 8.03821 122.842 8.86389C105.527 19.6969 95.1896 38.3405 95.1896 58.7361C95.1911 62.113 95.4807 65.4392 96.0314 68.6916C93.5153 70.5339 89.6457 73.927 86.4728 79.1502C78.1432 92.8621 80.9318 108.304 84.7375 118.843C85.1911 120.099 86.2365 121.048 87.5265 121.39C88.8176 121.733 90.1975 121.415 91.2131 120.549C91.3459 120.436 104.716 109.228 125 109.228C145.285 109.228 158.655 120.436 158.78 120.542C159.527 121.186 160.473 121.53 161.438 121.53C161.782 121.53 162.128 121.486 162.469 121.397C163.764 121.058 164.809 120.102 165.264 118.843C172.16 99.7488 168.126 86.719 163.529 79.1502ZM125.001 17.1891C130.471 21.0036 135.067 25.7936 138.607 31.2819C134.661 34.1198 129.934 35.6579 125.003 35.6579C120.065 35.6579 115.331 34.1159 111.382 31.2692C114.904 25.818 119.498 21.0255 125.001 17.1891ZM90.7702 110.911C85.9382 92.6175 93.132 82.1956 98.2043 77.4129C101.328 86.7976 106.794 95.2532 114.175 102.014C103.617 103.822 95.5393 107.921 90.7702 110.911ZM159.232 110.91C154.464 107.92 146.386 103.822 135.827 102.013C143.207 95.2527 148.673 86.7981 151.797 77.4138C156.876 82.2034 164.062 92.6243 159.232 110.91Z" fill="black"/>
<path d="M125.719 47.6006C118.241 47.6006 112.157 53.6841 112.157 61.1621C112.157 68.6397 118.241 74.7237 125.719 74.7237C133.197 74.7237 139.281 68.6402 139.281 61.1621C139.281 53.6846 133.197 47.6006 125.719 47.6006ZM125.719 66.5865C122.728 66.5865 120.295 64.1529 120.295 61.1621C120.295 58.1714 122.728 55.7378 125.719 55.7378C128.71 55.7378 131.143 58.1714 131.143 61.1621C131.143 64.1529 128.71 66.5865 125.719 66.5865Z" fill="black"/>
</g>
<defs>
<clipPath id="clip0_39_171">
<rect width="250" height="250" fill="white"/>
</clipPath>
</defs>
</svg>
