<svg width="244" height="244" viewBox="0 0 244 244" fill="none" xmlns="http://www.w3.org/2000/svg">
<path d="M235.688 40.9674L124.919 2.61029C123.024 1.95477 120.976 1.95477 119.081 2.61029L8.48911 40.9059L8.47785 40.91L8.31178 40.9674C8.27925 40.9785 8.25063 40.9969 8.21826 41.0086C7.81853 41.1517 7.42885 41.3234 7.05202 41.5225C7.00878 41.5453 6.96385 41.5646 6.92103 41.588C6.54775 41.7951 6.18867 42.0287 5.84635 42.2872C5.77085 42.3434 5.6975 42.4013 5.62379 42.4598C5.29089 42.7216 4.97529 43.0064 4.67911 43.3122C4.65165 43.3412 4.62785 43.3728 4.6008 43.4018C4.32758 43.6974 4.07283 44.0109 3.83811 44.3403C3.79008 44.4071 3.74036 44.472 3.69416 44.5402C3.45191 44.8959 3.23327 45.2683 3.03977 45.6549C3.0099 45.7146 2.98428 45.7757 2.95554 45.836C2.77496 46.2148 2.61879 46.6057 2.48805 47.006C2.4758 47.0437 2.46059 47.0795 2.44876 47.1175C2.31845 47.5432 2.21711 47.978 2.14551 48.4185C2.13015 48.5104 2.11776 48.602 2.10513 48.6942C2.03867 49.148 2.00354 49.606 2 50.065V145.958C2 148.501 2.97252 150.94 4.70363 152.738C6.43473 154.537 8.78262 155.547 11.2308 155.547C13.6789 155.547 16.0268 154.537 17.7579 152.738C19.489 150.94 20.4615 148.501 20.4615 145.958V63.3699L59.2137 76.789C48.9404 94.0215 45.653 114.779 50.0703 134.522C54.4875 154.265 66.2501 171.389 82.7861 182.148C60.7673 190.797 41.9782 206.518 29.1509 227.023C28.4873 228.078 28.0304 229.258 27.8063 230.496C27.5822 231.735 27.5952 233.007 27.8446 234.24C28.094 235.473 28.5749 236.643 29.2599 237.683C29.9448 238.723 30.8204 239.612 31.8364 240.301C32.8525 240.989 33.9892 241.462 35.1815 241.694C36.3738 241.925 37.5984 241.911 38.7851 241.65C39.9719 241.39 41.0977 240.889 42.098 240.176C43.0984 239.464 43.9537 238.553 44.6151 237.497C53.0012 224.113 64.4713 213.116 77.9847 205.504C91.4981 197.891 106.627 193.904 122 193.904C137.372 193.904 152.501 197.891 166.015 205.504C179.528 213.116 190.998 224.113 199.384 237.497C200.046 238.552 200.902 239.461 201.902 240.172C202.902 240.884 204.028 241.383 205.214 241.643C206.4 241.902 207.624 241.917 208.815 241.685C210.007 241.453 211.142 240.98 212.158 240.292C213.173 239.605 214.048 238.716 214.733 237.677C215.418 236.638 215.899 235.469 216.149 234.236C216.398 233.004 216.412 231.733 216.189 230.495C215.966 229.258 215.511 228.078 214.849 227.023C202.021 206.518 183.233 190.798 161.214 182.148C177.75 171.389 189.512 154.265 193.93 134.522C198.347 114.779 195.06 94.0215 184.786 76.789L235.688 59.1626C237.526 58.5261 239.125 57.3049 240.258 55.6721C241.39 54.0393 242 52.0777 242 50.065C242 48.0523 241.39 46.0906 240.258 44.4578C239.125 42.825 237.526 41.6039 235.688 40.9674ZM122 174.725C111.756 174.727 101.713 171.777 92.9869 166.204C84.2608 160.63 77.1939 152.651 72.5721 143.155C67.9503 133.658 65.9548 123.016 66.8076 112.411C67.6604 101.807 71.3279 91.6557 77.4024 83.0872L119.081 97.5197C120.976 98.1752 123.024 98.1752 124.919 97.5197L166.598 83.0872C172.672 91.6557 176.34 101.807 177.192 112.411C178.045 123.016 176.05 133.658 171.428 143.155C166.806 152.651 159.739 160.63 151.013 166.204C142.287 171.777 132.244 174.727 122 174.725Z" fill="black" stroke="black" stroke-width="3.125"/>
</svg>
