<svg width="250" height="250" viewBox="0 0 250 250" fill="none" xmlns="http://www.w3.org/2000/svg">
<path d="M203.949 167.153L160.108 159.188C158.46 158.858 156.75 159.335 155.455 160.409L132.284 179.722C128.068 183.228 121.943 183.228 117.728 179.722C117.58 179.603 117.426 179.483 117.267 179.375L105.455 171.426C102.847 169.659 99.3184 170.358 97.5684 172.966C95.8125 175.568 96.5 179.102 99.1079 180.852L110.699 188.653C113.295 190.755 116.255 192.125 119.33 192.92V221.591C119.33 224.733 121.869 227.272 125.011 227.272C128.153 227.272 130.693 224.733 130.693 221.591V192.915C133.863 192.096 136.909 190.665 139.568 188.454L160.704 170.835L201.926 178.324C210.022 179.807 215.909 186.863 215.909 195.102V232.954C215.909 236.09 213.363 238.636 210.227 238.636H39.7725C36.6362 238.636 34.0908 236.09 34.0908 232.954V195.102C34.0908 186.863 39.977 179.813 48.085 178.329L91.9258 170.363C95.0166 169.801 97.062 166.846 96.4995 163.761C95.9429 160.67 92.9766 158.602 89.8975 159.188L46.0513 167.153C32.54 169.619 22.7275 181.369 22.7275 195.102V232.954C22.7275 242.352 30.3755 250 39.7729 250H210.228C219.625 250 227.273 242.352 227.273 232.954V195.102C227.273 181.369 217.46 169.619 203.949 167.153Z" fill="black"/>
<path d="M107.955 79.5454C111.092 79.5454 113.636 77.0017 113.636 73.8638C113.636 70.7259 111.092 68.1821 107.955 68.1821C104.817 68.1821 102.273 70.7259 102.273 73.8638C102.273 77.0017 104.817 79.5454 107.955 79.5454Z" fill="black"/>
<path d="M142.045 79.5454C145.183 79.5454 147.727 77.0017 147.727 73.8638C147.727 70.7259 145.183 68.1821 142.045 68.1821C138.908 68.1821 136.364 70.7259 136.364 73.8638C136.364 77.0017 138.908 79.5454 142.045 79.5454Z" fill="black"/>
<path d="M181.818 51.1362V45.4546C181.818 20.3921 161.426 0 136.364 0H113.637C88.5742 0 68.1821 20.3921 68.1821 45.4546V51.1362C58.7842 51.1362 51.1367 58.7842 51.1367 68.1816V79.5454C51.1367 88.9434 58.7847 96.5908 68.1821 96.5908H71.8355C72.25 99.3579 72.54 101.17 72.5742 101.386C73.648 110.903 77.4551 119.886 83.5913 127.369L84.8071 128.852C94.6426 140.846 109.29 147.727 125 147.727C133.762 147.727 142.432 145.522 150.074 141.352C152.824 139.846 153.841 136.397 152.335 133.642C150.83 130.897 147.387 129.875 144.625 131.38C138.648 134.636 131.864 136.363 125 136.363C112.71 136.363 101.261 131 93.5967 121.642L92.3809 120.159C87.6421 114.375 84.6934 107.443 83.8296 99.8462C83.7842 99.5791 79.5454 72.9316 79.5454 62.4995V56.8179V45.4546C79.5454 26.6533 94.835 11.3638 113.636 11.3638H136.363C155.062 11.3638 170.295 26.5 170.454 45.1592C161.04 44.1821 152.369 40.7783 145.607 35.3408C145.63 35.3921 145.636 35.4146 145.659 35.4658C143.846 33.9429 141.244 33.6138 139.113 34.9033C127.199 42.0967 112.215 47.1592 95.7778 49.5625C92.6758 50.0112 90.522 52.8979 90.9766 56.0059C91.3857 58.8296 93.8174 60.8638 96.5903 60.8638C96.8633 60.8638 97.1416 60.8467 97.4199 60.8013C113.875 58.4033 128.965 53.3867 141.556 46.4375C149.789 52.1362 159.778 55.6421 170.454 56.5625V62.5C170.454 72.9316 166.215 99.5796 166.13 100.108C165.829 102.79 165.142 105.397 164.278 107.955H141.522C140.346 104.653 137.221 102.273 133.522 102.273H116.477C111.778 102.273 107.954 106.097 107.954 110.796C107.954 115.495 111.778 119.319 116.477 119.319H125H133.523H176.137C185.535 119.319 193.182 111.671 193.182 102.273V92.1597C196.643 89.0405 198.864 84.563 198.864 79.5459V68.1821C198.864 58.7842 191.216 51.1362 181.818 51.1362ZM68.1816 85.2271C65.0454 85.2271 62.5 82.6816 62.5 79.5454V68.1816C62.5 65.0454 65.0454 62.5 68.1816 62.5V85.2271ZM181.818 102.273C181.818 105.392 179.29 107.926 176.17 107.949C176.705 105.841 177.159 103.733 177.392 101.648C177.438 101.364 177.744 99.4605 178.17 96.5913H181.818V102.273ZM187.5 79.5454C187.5 82.6816 184.955 85.2271 181.818 85.2271V62.5C184.955 62.5 187.5 65.0454 187.5 68.1816V79.5454Z" fill="black"/>
</svg>
