<svg width="282" height="94" viewBox="0 0 282 94" fill="none" xmlns="http://www.w3.org/2000/svg">
<path d="M281.826 22.3793C277.991 0.273867 211.836 -6.62457 134.058 6.97065C101.394 12.6832 71.8996 21.1088 48.931 30.5878C52.4593 30.6653 55.0759 31.4776 56.6659 33.0696C57.9089 34.319 58.5367 36.0338 58.5367 38.1702V40.3629H50.91V38.4268C50.91 36.8136 49.9465 35.8138 48.24 35.8138C46.806 35.8138 45.9225 36.4639 45.6374 37.7443C45.5418 38.2504 45.5523 38.771 45.6683 39.2729C46.4843 42.622 57.8092 44.702 59.041 50.8826C59.2025 51.6779 59.4216 53.38 59.0761 55.8153C58.3696 60.8002 54.0071 62.7236 48.4535 62.7236C40.7018 62.7236 37.5528 59.0375 37.5528 53.9553L37.5584 51.551H45.7343L45.7385 54.5462C45.7385 56.2299 46.9577 57.1592 48.6178 57.1592C50.1909 57.1592 51.1095 56.5232 51.4269 55.2231C51.5744 54.6252 51.639 53.7438 51.3707 53.0698C49.858 49.2595 39.2832 47.4799 37.9812 41.319C37.6905 39.9342 37.6666 38.7554 37.9082 37.2648C38.0321 36.526 38.2601 35.8085 38.5852 35.1341C13.1081 47.0964 -1.79554 60.2587 0.173635 71.6231C4.01226 93.7313 70.1664 100.623 147.943 87.0275C182.133 81.0527 212.87 72.1082 236.262 62.0848C235.924 62.1018 235.595 62.1384 235.244 62.1384C229.921 62.1384 225.168 60.136 224.675 54.6731C224.588 53.6789 224.572 53.263 224.569 52.6961L224.572 40.1373C224.572 39.5958 224.635 38.6454 224.696 38.1546C225.327 32.875 229.484 30.6978 235.247 30.6978C239.706 30.6978 245.174 31.9824 245.775 38.1589C245.855 38.9344 245.847 39.7622 245.846 40.0344V41.2203H238.143V39.4506C238.143 39.4125 238.132 38.7511 238.047 38.338C237.921 37.7076 237.386 36.2467 235.192 36.2467C233.025 36.2467 232.463 37.7104 232.323 38.3394C232.243 38.6849 232.205 39.1812 232.205 39.7312V53.38C232.198 53.8538 232.221 54.2247 232.269 54.4968C232.307 54.7112 232.696 56.5923 235.219 56.5923C237.723 56.5923 238.111 54.7112 238.146 54.4968C238.212 54.1274 238.22 53.6874 238.217 53.38V49.151H235.186V44.5962H245.905V52.6989C245.902 53.2503 245.893 53.6578 245.801 54.6731C245.671 56.1058 245.222 57.3185 244.517 58.355C269.325 46.5281 283.77 33.5787 281.826 22.3793ZM80.1499 61.5574L76.248 34.9395H76.1076L72.106 61.5574H63.8824L69.4135 31.4973H82.8312L88.3285 61.5574H80.1499ZM119.705 61.5574L119.524 35.4542H119.391L114.553 61.5574H106.835L102.02 35.4542H101.882L101.707 61.5574H94.0591L94.722 31.4973H107.023L110.605 53.827H110.78L114.372 31.4973H126.667L127.327 61.5574H119.705ZM155.719 55.7321C154.896 61.5546 149.214 62.5727 145.199 62.5727C138.531 62.5727 134.407 59.7116 134.407 53.8891L134.412 51.5144H142.489L142.495 54.4729C142.495 56.079 143.623 57.0619 145.364 57.0619C146.918 57.0619 147.828 56.4358 148.144 55.1497C148.29 54.5504 148.35 53.6761 148.092 53.0162C146.603 49.2779 136.111 47.4461 134.836 41.3811C134.544 40.0062 134.523 38.8386 134.763 37.3635C135.651 31.8654 140.906 30.7232 145.137 30.7232C148.921 30.7232 151.675 31.5523 153.327 33.2107C154.559 34.4488 155.182 36.148 155.182 38.2618V40.4306H147.628V38.517C147.628 36.8785 146.616 35.9308 144.988 35.9308C143.544 35.9308 142.67 36.5753 142.384 37.843C142.291 38.3439 142.303 38.8589 142.42 39.3547C143.229 42.6883 154.455 44.7259 155.684 50.8488C155.842 51.63 156.06 53.3067 155.719 55.7321ZM183.694 53.0007C183.706 53.5647 183.651 54.6914 183.62 54.9805C183.159 59.9329 179.631 62.4501 173.16 62.4501C166.664 62.4501 163.133 59.9329 162.675 54.9805C162.623 54.3238 162.599 53.6651 162.601 53.0063V31.4903H170.329V53.6846C170.32 54.181 170.346 54.5476 170.395 54.8028C170.49 55.2964 170.979 56.8983 173.16 56.8983C175.335 56.8983 175.823 55.295 175.926 54.8085C175.969 54.5462 175.996 54.1612 175.996 53.6832V31.4903H183.694V53.0007ZM216.989 61.2514H206.236L199.018 37.4411H198.897L199.297 61.2514H191.803V31.4973H203.007L209.678 54.3699H209.834L209.44 31.4973H216.989V61.2514Z" fill="#2D4F9E"/>
</svg>
